<svg id="visual" viewBox="0 0 900 600" width="900" height="600" xmlns="http://www.w3.org/2000/svg" xmlns:xlink="http://www.w3.org/1999/xlink" version="1.1"><rect x="0" y="0" width="900" height="600" fill="#a09fc7"></rect><path d="M0 147L16.7 187.2C33.3 227.3 66.7 307.7 100 310.3C133.3 313 166.7 238 200 214.7C233.3 191.3 266.7 219.7 300 253C333.3 286.3 366.7 324.7 400 334.2C433.3 343.7 466.7 324.3 500 297.8C533.3 271.3 566.7 237.7 600 251C633.3 264.3 666.7 324.7 700 327C733.3 329.3 766.7 273.7 800 240.7C833.3 207.7 866.7 197.3 883.3 192.2L900 187L900 0L883.3 0C866.7 0 833.3 0 800 0C766.7 0 733.3 0 700 0C666.7 0 633.3 0 600 0C566.7 0 533.3 0 500 0C466.7 0 433.3 0 400 0C366.7 0 333.3 0 300 0C266.7 0 233.3 0 200 0C166.7 0 133.3 0 100 0C66.7 0 33.3 0 16.7 0L0 0Z" fill="#fdf5dd" stroke-linecap="round" stroke-linejoin="miter"></path></svg>